<?xml version="1.0" encoding="utf-8"?>
<!-- Generator: Adobe Illustrator 23.0.0, SVG Export Plug-In . SVG Version: 6.00 Build 0)  -->
<svg version="1.1" id="Layer_1" xmlns="http://www.w3.org/2000/svg" xmlns:xlink="http://www.w3.org/1999/xlink" x="0px" y="0px"
	 viewBox="0 0 512 512" style="enable-background:new 0 0 512 512;" xml:space="preserve">
<style type="text/css">
	.st0{fill-rule:evenodd;clip-rule:evenodd;}
	.st1{fill-rule:evenodd;clip-rule:evenodd;fill:#E31E16;}
</style>
<g>
	<path class="st0" d="M133.8,170.3c5.2,1.7,10.9-1.1,12.6-6.4c15.7-47.5,59.9-79.4,109.9-79.4c63.8,0,115.7,51.9,115.7,115.7
		c0,49.3-22.1,78.8-39.8,102.5c-12.9,17.2-24.1,32.1-24.1,50.1c0,1.2,0,2.4,0,3.5h-41.8v-23c0-5.5-4.5-10-10-10s-10,4.5-10,10v23
		h-41.8c0-1.2,0-2.3,0-3.5c0-18-11.2-32.9-24.1-50.1c-13.1-17.4-27.9-37.2-35.2-65.3c-1.4-5.3-6.9-8.5-12.2-7.1
		c-5.3,1.4-8.5,6.9-7.1,12.2c8.3,31.9,25.1,54.3,38.6,72.2c11.2,15,20.1,26.8,20.1,38.2c0,4.8,0.2,9.5,0.6,13.9v84.6
		c0,0.3,0,0.5,0,0.8c0,0.1,0,0.1,0,0.2c0,0.4,0.1,0.7,0.2,1.1v0c3.5,16.3,12.4,31.1,25,41.7c12.9,10.8,29.3,16.8,46,16.8
		s33-6,46-16.8c12.7-10.6,21.6-25.4,25-41.7c0,0,0,0,0,0c0.1-0.4,0.1-0.7,0.2-1.1c0-0.1,0-0.1,0-0.2c0-0.3,0-0.5,0-0.8v-84.6
		c0.4-4.5,0.6-9.1,0.6-13.9c0-11.4,8.9-23.2,20.1-38.2c18.5-24.7,43.8-58.5,43.8-114.5c0-74.8-60.9-135.7-135.7-135.7
		c-58.7,0-110.5,37.4-128.9,93.1C125.7,162.9,128.5,168.6,133.8,170.3z M256.3,492c-20.3,0-38.7-12.3-47.4-30.6h94.7
		C295,479.7,276.7,492,256.3,492z M307.6,441.4H205.1V419h102.5V441.4z M307.6,399H205.1v-22.5h102.5V399z"/>
	<path class="st0" d="M256.3,46.6c5.5,0,10-4.5,10-10V10c0-5.5-4.5-10-10-10s-10,4.5-10,10v26.6C246.3,42.2,250.8,46.6,256.3,46.6z"
		/>
	<path class="st0" d="M66,210.3h26.6c5.5,0,10-4.5,10-10s-4.5-10-10-10H66c-5.5,0-10,4.5-10,10S60.5,210.3,66,210.3z"/>
	<path class="st1" d="M302.1,220.5c0-5.5-4.5-10-10-10h-71.6c-5.5,0-10,4.5-10,10s4.5,10,10,10h25.8v23c0,5.5,4.5,10,10,10
		s10-4.5,10-10v-23h25.8C297.6,230.5,302.1,226.1,302.1,220.5z"/>
	<path class="st0" d="M133.5,91.7c2,2,4.5,2.9,7.1,2.9s5.1-1,7.1-2.9c3.9-3.9,3.9-10.2,0-14.1l-18.8-18.8c-3.9-3.9-10.2-3.9-14.1,0
		c-3.9,3.9-3.9,10.2,0,14.1L133.5,91.7z"/>
	<path class="st0" d="M114.8,351.8c2.6,0,5.1-1,7.1-2.9l18.8-18.8c3.9-3.9,3.9-10.2,0-14.1s-10.2-3.9-14.1,0l-18.8,18.8
		c-3.9,3.9-3.9,10.2,0,14.1C109.7,350.8,112.3,351.8,114.8,351.8z"/>
	<path class="st0" d="M372.1,94.6c2.6,0,5.1-1,7.1-2.9L398,72.8c3.9-3.9,3.9-10.2,0-14.1c-3.9-3.9-10.2-3.9-14.1,0L365,77.5
		c-3.9,3.9-3.9,10.2,0,14.1C366.9,93.6,369.5,94.6,372.1,94.6z"/>
	<path class="st1" d="M371.9,315.9c-3.9,3.9-3.9,10.2,0,14.1l18.8,18.8c2,2,4.5,2.9,7.1,2.9s5.1-1,7.1-2.9c3.9-3.9,3.9-10.2,0-14.1
		L386,315.9C382.1,312,375.8,312,371.9,315.9z"/>
	<path class="st1" d="M420,210.3h26.6c5.5,0,10-4.5,10-10s-4.5-10-10-10H420c-5.5,0-10,4.5-10,10S414.5,210.3,420,210.3z"/>
	<path class="st1" d="M420,210.3h26.6c5.5,0,10-4.5,10-10s-4.5-10-10-10H420c-5.5,0-10,4.5-10,10S414.5,210.3,420,210.3z"/>
	<path class="st0" d="M256.3,283.5c-5.5,0-10,4.5-10,10s4.5,10,10,10s10-4.5,10-10S261.8,283.5,256.3,283.5z"/>
	<path class="st0" d="M140.6,200.3c0-5.5-4.5-10-10-10c-5.5,0-10,4.5-10,10s4.5,10,10,10C136.1,210.3,140.6,205.8,140.6,200.3z"/>
</g>
</svg>
