<?xml version="1.0" encoding="UTF-8"?>
<!DOCTYPE svg PUBLIC "-//W3C//DTD SVG 1.1//EN" "http://www.w3.org/Graphics/SVG/1.1/DTD/svg11.dtd">
<!-- Creator: CorelDRAW 2019 (64-Bit) -->
<svg xmlns="http://www.w3.org/2000/svg" xml:space="preserve" width="89.9368mm" height="103.622mm" version="1.1" style="shape-rendering:geometricPrecision; text-rendering:geometricPrecision; image-rendering:optimizeQuality; fill-rule:evenodd; clip-rule:evenodd"
viewBox="0 0 8993.82 10362.4"
 xmlns:xlink="http://www.w3.org/1999/xlink">
 <defs>
  <style type="text/css">
   <![CDATA[
    .fil3 {fill:black;fill-rule:nonzero}
    .fil2 {fill:url(#id0)}
    .fil1 {fill:url(#id1)}
    .fil0 {fill:url(#id2);fill-rule:nonzero}
   ]]>
  </style>
  <linearGradient id="id0" gradientUnits="userSpaceOnUse" x1="2146.79" y1="5601.5" x2="4531.36" y2="5113.82">
   <stop offset="0" style="stop-opacity:1; stop-color:#F91AE7"/>
   <stop offset="1" style="stop-opacity:1; stop-color:#3C2192"/>
  </linearGradient>
  <linearGradient id="id1" gradientUnits="userSpaceOnUse" xlink:href="#id0" x1="4390.09" y1="5998.57" x2="6997.96" y2="2344.43">
  </linearGradient>
  <linearGradient id="id2" gradientUnits="userSpaceOnUse" xlink:href="#id0" x1="7289.31" y1="3387.71" x2="1704.53" y2="7388.77">
  </linearGradient>
 </defs>
 <g id="Слой_x0020_1">
  <metadata id="CorelCorpID_0Corel-Layer"/>
  <g id="_1041256912">
   <path class="fil0" d="M4496.91 1953.18c605.29,0 1174,156.59 1667.88,431.43 -0.08,138.83 -6.81,278.4 -20.77,418.7 -475.7,-303.74 -1040.84,-479.81 -1647.11,-479.81 -846.31,0 -1612.52,343.05 -2167.11,897.63 -554.59,554.6 -897.63,1320.79 -897.63,2167.11 0,846.31 343.05,1612.52 897.63,2167.11 554.6,554.59 1320.8,897.63 2167.11,897.63 846.32,0 1612.53,-343.05 2167.11,-897.63 554.6,-554.6 897.63,-1320.8 897.63,-2167.11 0,-625.96 -187.7,-1208.07 -509.82,-1693.17 35.87,-169.04 62.43,-340.1 78.04,-513.02 500.6,596.81 802.09,1366.29 802.09,2206.18 0,948.55 -384.5,1807.33 -1006.12,2428.95 -621.62,621.62 -1480.39,1006.12 -2428.95,1006.12 -948.55,0 -1807.32,-384.5 -2428.94,-1006.12 -621.62,-621.62 -1006.13,-1480.39 -1006.13,-2428.95 0,-948.55 384.51,-1807.33 1006.13,-2428.95 621.62,-621.62 1480.38,-1006.12 2428.94,-1006.12z"/>
   <path class="fil1" d="M3989.72 7046.6c98.18,300.69 262.91,808.63 361.1,1109.32 1879.48,-2683.99 3978.3,-5185.39 1432.13,-8155.92 1242.3,2767.63 357.79,4672.87 -1793.23,7046.6z"/>
   <path class="fil2" d="M4504.89 6313.42c-468.34,-1165.81 -964.15,-2457.6 -2370.66,-2649.79 870.55,811.81 1320.46,1716.85 1822.95,3280.94 185.36,-205.38 369.24,-415.66 547.71,-631.15z"/>
  </g>
  <path class="fil3" d="M-0 9570.06l84.14 0 256.58 598.38 260.88 -598.38 84.15 0 -336.97 772.96 -17.22 0 -331.58 -772.96zm803.27 0l77.51 0 0 772.96 -77.51 0 0 -772.96zm195.94 0l84.14 0 256.58 598.38 260.88 -598.38 84.15 0 -336.97 772.96 -17.22 0 -331.58 -772.96zm1130.55 0l360.65 772.96 -83.08 0 -120.75 -254.06 -334.99 0 -120.03 254.06 -86.12 0 364.95 -772.96 19.38 0zm-9.69 162.2l-132.95 281.33 265.36 0 -132.41 -281.33zm1534.61 -32.66l-59.93 56.7c-43.24,-42.34 -90.6,-74.46 -142.1,-96.35 -51.49,-21.89 -101.73,-32.83 -150.71,-32.83 -60.83,0 -118.78,14.89 -173.68,44.67 -55.09,29.79 -97.79,70.16 -127.93,121.29 -30.32,50.96 -45.39,104.78 -45.39,161.66 0,58.13 15.61,113.4 46.82,165.97 31.22,52.39 74.46,93.48 129.55,123.44 55.26,29.96 115.54,45.03 181.21,45.03 79.67,0 147.13,-22.42 202.21,-67.1 55.08,-44.68 87.74,-102.81 97.97,-174.04l-246.53 0 0 -75.36 333.73 0c-0.71,119.32 -36.24,214.23 -106.57,284.39 -70.52,70.15 -164.53,105.32 -282.59,105.32 -143.18,0 -256.57,-48.63 -340.19,-146.05 -64.24,-75 -96.35,-161.66 -96.35,-260.16 0,-73.03 18.48,-141.21 55.26,-204.36 36.96,-62.98 87.56,-112.32 151.79,-147.85 64.41,-35.52 137.08,-53.29 218.18,-53.29 65.66,0 127.56,11.85 185.52,35.35 57.95,23.68 114.65,61.36 169.73,113.57zm195.92 -129.54l154.31 0c85.94,0 144.25,3.59 174.75,10.59 46.11,10.4 83.43,32.83 112.14,67.46 28.89,34.45 43.24,76.97 43.24,127.39 0,41.98 -9.87,78.94 -29.78,110.7 -19.74,31.94 -48.09,55.98 -85.05,72.31 -36.78,16.33 -87.73,24.58 -152.68,24.94l278.28 359.57 -94.92 0 -278.28 -359.57 -44.5 0 0 359.57 -77.51 0 0 -772.96zm77.51 75.36l0 262.67 133.49 1.08c51.86,0 90.07,-4.85 114.83,-14.71 24.76,-9.87 44.14,-25.48 58.14,-47.01 13.81,-21.53 20.81,-45.58 20.81,-72.31 0,-25.84 -7,-49.52 -21.17,-70.69 -14,-21.17 -32.48,-36.24 -55.44,-45.4 -22.79,-9.15 -60.83,-13.63 -113.94,-13.63l-136.72 0zm940.18 -94.74c116.98,0 214.95,39.12 293.71,117.17 78.77,78.04 118.24,174.21 118.24,288.33 0,113.21 -39.29,209.2 -117.88,287.97 -78.76,78.76 -174.57,118.24 -287.79,118.24 -114.47,0 -211.18,-39.3 -289.95,-117.7 -78.76,-78.41 -118.23,-173.32 -118.23,-284.75 0,-74.28 17.94,-142.99 53.82,-206.51 35.89,-63.34 84.87,-113.04 146.95,-148.92 61.9,-35.88 129,-53.83 201.13,-53.83zm3.41 75.36c-57.06,0 -111.24,14.89 -162.56,44.68 -51.13,29.78 -91.14,69.79 -120.03,120.21 -28.71,50.6 -43.06,106.76 -43.06,168.84 0,91.68 31.76,169.19 95.45,232.35 63.7,63.33 140.49,94.91 230.2,94.91 60.11,0 115.55,-14.53 166.5,-43.6 51.14,-29.07 90.97,-68.9 119.5,-119.31 28.53,-50.42 42.88,-106.4 42.88,-168.12 0,-61.36 -14.35,-116.81 -42.88,-166.33 -28.53,-49.52 -68.9,-89.17 -120.75,-118.95 -51.86,-29.79 -106.94,-44.68 -165.25,-44.68zm566.98 -55.98l77.51 0 0 466.87c0,55.26 1.07,89.89 3.23,103.52 3.77,30.5 12.74,55.98 26.73,76.44 14,20.45 35.53,37.68 64.59,51.49 29.07,13.82 58.32,20.81 87.92,20.81 25.48,0 50.06,-5.38 73.56,-16.32 23.33,-10.77 43.06,-25.84 58.85,-45.22 15.79,-19.2 27.27,-42.52 34.63,-69.79 5.2,-19.74 7.9,-59.93 7.9,-120.93l0 -466.87 77.51 0 0 466.51c0,69.08 -6.82,124.88 -20.28,167.4 -13.46,42.52 -40.55,79.66 -80.92,111.06 -40.55,31.58 -89.53,47.37 -147.12,47.37 -62.44,0 -115.91,-14.89 -160.41,-44.68 -44.67,-29.78 -74.46,-69.08 -89.53,-118.24 -9.51,-30.14 -14.17,-84.33 -14.17,-162.91l0 -466.51zm701.73 0l154.12 0c88.28,0 148.02,3.77 178.88,11.48 44.14,10.95 80.21,33.2 108.2,67.11 28.17,33.73 42.16,76.25 42.16,127.39 0,51.49 -13.64,93.84 -41.09,127.39 -27.27,33.37 -64.95,55.8 -112.85,67.46 -35.17,8.43 -100.66,12.56 -196.65,12.56l-55.26 0 0 359.57 -77.51 0 0 -772.96zm77.51 75.36l0 262.67 130.98 1.62c52.93,0 91.68,-4.85 116.26,-14.54 24.58,-9.69 43.96,-25.12 57.95,-46.65 14,-21.53 21,-45.75 21,-72.3 0,-25.84 -7,-49.7 -21,-71.23 -13.99,-21.53 -32.65,-36.78 -55.62,-45.94 -22.96,-9.15 -60.46,-13.63 -112.85,-13.63l-136.72 0zm860.88 -75.36l77.51 0 0 466.87c0,55.26 1.07,89.89 3.23,103.52 3.77,30.5 12.74,55.98 26.73,76.44 14,20.45 35.53,37.68 64.59,51.49 29.07,13.82 58.32,20.81 87.92,20.81 25.48,0 50.06,-5.38 73.56,-16.32 23.33,-10.77 43.06,-25.84 58.85,-45.22 15.79,-19.2 27.27,-42.52 34.63,-69.79 5.2,-19.74 7.9,-59.93 7.9,-120.93l0 -466.87 77.51 0 0 466.51c0,69.08 -6.82,124.88 -20.28,167.4 -13.46,42.52 -40.55,79.66 -80.92,111.06 -40.55,31.58 -89.53,47.37 -147.12,47.37 -62.44,0 -115.91,-14.89 -160.41,-44.68 -44.67,-29.78 -74.46,-69.08 -89.53,-118.24 -9.51,-30.14 -14.17,-84.33 -14.17,-162.91l0 -466.51zm622.06 628.35l65.67 -39.48c46.29,85.41 99.76,128.11 160.41,128.11 26.01,0 50.41,-6.1 73.2,-18.12 22.79,-12.02 40.19,-28.35 52.03,-48.62 12.02,-20.28 17.94,-41.81 17.94,-64.6 0,-25.83 -8.79,-51.13 -26.37,-76.07 -24.22,-34.27 -68.36,-75.72 -132.77,-123.98 -64.59,-48.8 -104.78,-83.97 -120.57,-105.68 -27.46,-36.42 -41.09,-75.9 -41.09,-118.24 0,-33.55 8.07,-64.23 24.22,-91.86 16.15,-27.63 38.94,-49.34 68.36,-65.31 29.43,-15.97 61.18,-23.87 95.63,-23.87 36.6,0 70.87,8.98 102.63,27.1 31.76,17.94 65.49,51.13 101.02,99.4l-63.16 47.9c-29.25,-38.57 -54.19,-64.05 -74.82,-76.25 -20.63,-12.38 -43.06,-18.48 -67.28,-18.48 -31.4,0 -57.06,9.51 -76.97,28.35 -19.92,19.01 -29.97,42.16 -29.97,69.97 0,16.69 3.59,33.01 10.59,48.8 7,15.79 19.91,32.84 38.57,51.5 10.05,9.69 43.6,35.52 100.3,77.15 67.1,49.52 113.22,93.48 138.15,131.87 24.94,38.58 37.5,77.33 37.5,116.27 0,55.98 -21.35,104.78 -63.87,146.05 -42.7,41.44 -94.56,62.08 -155.56,62.08 -47.01,0 -89.71,-12.56 -127.93,-37.68 -38.21,-25.12 -73.56,-67.28 -105.86,-126.31zm932.29 -628.35l360.65 772.96 -83.08 0 -120.75 -254.06 -334.99 0 -120.03 254.06 -86.12 0 364.95 -772.96 19.38 0zm-9.69 162.2l-132.95 281.33 265.36 0 -132.41 -281.33z"/>
 </g>
</svg>
