<?xml version="1.0" encoding="UTF-8"?>
<!DOCTYPE svg PUBLIC "-//W3C//DTD SVG 1.1//EN" "http://www.w3.org/Graphics/SVG/1.1/DTD/svg11.dtd">
<!-- Creator: CorelDRAW 2019 (64-Bit) -->
<svg xmlns="http://www.w3.org/2000/svg" xml:space="preserve" width="29.3618mm" height="2.8209mm" version="1.1" style="shape-rendering:geometricPrecision; text-rendering:geometricPrecision; image-rendering:optimizeQuality; fill-rule:evenodd; clip-rule:evenodd"
viewBox="0 0 1363.02 130.95"
 xmlns:xlink="http://www.w3.org/1999/xlink">
 <defs>
  <style type="text/css">
   <![CDATA[
    .fil1 {fill:#434242}
    .fil0 {fill:#434242}
   ]]>
  </style>
 </defs>
 <g id="Слой_x0020_1">
  <metadata id="CorelCorpID_0Corel-Layer"/>
  <path class="fil0" d="M61.67 129.67l49.29 -127.84 -33.76 0c-12.12,30.14 -23.54,58.54 -35.66,88.68l-5.19 -88.68 -36.36 0 3.46 127.84 58.21 0z"/>
  <path class="fil0" d="M252.24 129.67l48.95 -127.84 -33.76 0c-12.12,30.14 -23.57,58.54 -35.69,88.68l-5.19 -88.68 -36.36 0 3.46 127.84 58.58 0z"/>
  <polygon class="fil0" points="329.65,1.83 280.75,129.67 314.51,129.67 327.15,98.25 306.07,83.25 333.25,83.07 350.86,39.27 353.63,86.53 316.67,86.77 355.25,114.23 356.05,129.67 392.3,129.67 389,1.83 "/>
  <polygon class="fil0" points="126.18,1.83 163.33,1.83 163.33,129.38 126.18,129.38 "/>
  <path class="fil1" d="M522.73 101.69l2.51 -21.19 -18.41 0 2.97 -25.03 47.93 0 -8.41 70.91 -1.55 0.19c-20.41,2.64 -41.08,1.36 -61.65,1.36 -7.86,0 -16.2,-1.86 -21.06,-8.86 -5.05,-7.26 -4.91,-18.05 -3.9,-26.53l6.6 -52.66c1.13,-9.56 3.76,-20.59 10.42,-27.72 6.33,-6.79 15.19,-8.9 24.01,-8.9l53.24 0 -3.38 28.5 -47.08 0c-5.29,0 -7.16,3.63 -7.76,8.62l-6.6 54.98c-0.19,1.61 -0.15,3.51 0.79,4.88 0.8,1.14 1.95,1.49 3.27,1.49 9.35,0 18.72,0.49 28.06,-0.07zm122.54 -11.51l13.43 39.04 -31.88 0 -11.95 -36.53 -16.63 0 -4.33 36.53 -29.52 0 14.93 -125.93 61.24 0c8.18,0 17.14,1.81 22.23,9.13 5.26,7.56 4.99,19.18 3.95,27.99l-1.86 15.66c-0.92,7.81 -2.77,16.55 -6.85,23.29 -3.11,5.15 -7.39,8.76 -12.77,10.82zm123.73 4.16c-1.13,9.56 -3.77,20.6 -10.42,27.72 -6.33,6.79 -15.19,8.89 -24.01,8.89l-35.4 0c-8.18,0 -17.15,-1.81 -22.23,-9.12 -5.26,-7.56 -4.99,-19.19 -3.95,-28l6.61 -55.67c1.13,-9.56 3.76,-20.59 10.41,-27.72 6.33,-6.78 15.19,-8.89 24.01,-8.89l35.4 0c8.18,0 17.15,1.82 22.24,9.12 5.26,7.57 4.99,19.19 3.94,28l-6.6 55.66zm89.93 -91.05l29.52 0 -10.8 91.05c-1.13,9.56 -3.77,20.6 -10.42,27.72 -6.33,6.79 -15.19,8.89 -24.01,8.89l-32.57 0c-8.17,0 -17.15,-1.81 -22.24,-9.12 -5.26,-7.56 -4.99,-19.19 -3.94,-28l10.74 -90.55 29.51 0 -10.8 91.05c-0.56,4.71 0.16,8.11 5.27,8.11l21.24 0c5.29,0 7.16,-3.63 7.76,-8.62l10.73 -90.55zm66.47 91.13l-4.13 34.8 -29.51 0 14.93 -125.93 61.24 0c8.18,0 17.15,1.81 22.24,9.13 5.26,7.56 4.99,19.18 3.94,27.99l-2.06 17.39c-1.13,9.56 -3.77,20.6 -10.42,27.72 -6.33,6.79 -15.19,8.89 -24.01,8.89l-32.22 0zm-319.93 -62.63l-3.83 32.38 26.05 0c5.29,0 7.16,-3.63 7.76,-8.62l1.85 -15.65c0.56,-4.71 -0.15,-8.11 -5.27,-8.11l-26.55 0zm140.69 6.37c0.55,-4.71 -0.16,-8.11 -5.28,-8.11l-24.07 0c-5.29,0 -7.16,3.62 -7.75,8.62l-6.61 55.66c-0.55,4.71 0.16,8.11 5.28,8.11l24.07 0c5.29,0 7.16,-3.63 7.75,-8.62l6.61 -55.67zm186.68 -6.37l-4.04 34.12 26.06 0c5.29,0 7.16,-3.63 7.75,-8.62l2.06 -17.39c0.55,-4.71 -0.16,-8.11 -5.28,-8.11l-26.55 0z"/>
  <g id="_1224361968">
   <path class="fil1" d="M1251.8 49.19c0.21,-0.46 0.38,-1.56 1.5,-9.56 1.13,-8 3.24,-22.88 4.29,-30.33 1.05,-7.45 1.05,-7.45 -12.38,-7.45 -13.43,0 -40.31,0 -53.74,0 -13.44,0 -13.44,0 -14.71,8.75 -1.28,8.76 -3.82,26.26 -5.09,35 -1.28,8.75 -1.28,8.75 6.08,13.74 7.35,4.99 22.06,14.96 29.42,19.94 7.35,4.99 7.35,4.99 7.07,8.37 -0.29,3.39 -0.85,10.16 -1.14,13.55 -0.28,3.38 -0.28,3.38 -4.23,3.38 -3.97,0 -11.88,0 -15.83,0 -3.96,0 -3.96,0 -3.68,-1.88 0.27,-1.88 0.84,-5.64 1.13,-7.52 0.27,-1.88 0.27,-1.88 -3.68,-3.95 -3.96,-2.07 -11.88,-6.22 -15.84,-8.28 -3.96,-2.07 -3.96,-2.07 -5.23,5.93 -1.28,8 -3.82,23.99 -5.09,31.99 -1.28,8 -1.28,8 11.03,8 12.3,0 36.91,0 49.21,0 12.3,0 12.3,0 13.71,-9.88 1.42,-9.88 4.24,-29.63 5.65,-39.51 1.42,-9.88 1.42,-9.88 -5.65,-14.96 -7.07,-5.08 -21.21,-15.24 -28.28,-20.32 -7.07,-5.08 -7.07,-5.08 -6.93,-7.15 0.13,-2.07 0.42,-6.21 0.57,-8.28 0.14,-2.07 0.14,-2.07 4.24,-2.07 4.1,0 12.3,0 16.4,0 4.1,0 4.1,0 4.25,1.69 0.13,1.7 0.41,5.08 0.56,6.78 0.14,1.69 0.14,1.69 4.4,3.76 4.26,2.07 12.76,6.21 17.15,8.37 4.39,2.17 4.64,2.36 4.85,1.9z"/>
   <polygon class="fil1" points="1301.93,0.57 1253.57,127.01 1286.66,127.01 1299.05,96.21 1278.39,81.51 1305.03,81.33 1322.29,38.39 1325.01,84.72 1288.78,84.96 1326.6,111.88 1327.38,128.37 1363.02,128.37 1359.63,0 "/>
   <path class="fil1" d="M1150.47 2c4.09,0.09 4.07,0.34 4.05,0.54 -0.02,0.19 -0.04,0.34 -2.14,21.45 -2.1,21.11 -6.3,63.21 -8.39,84.25 -2.1,21.04 -3.63,20.63 -16.79,20.63 -13.15,0 -45.81,0 -58.96,-0.88 -13.16,-0.88 -13.16,-2.65 -11,-23.81 2.16,-21.17 6.49,-61.74 8.65,-82.02l0.45 -4.24 -22.24 -15.83 26.68 -0.18c0.39,-0.04 0.27,-0.04 1.36,-0.04 1.09,0 4,0 6.46,-0.01l0.29 0 0.29 -0 0.29 0 0.28 0 0.29 -0 0.29 0 0 0c3.07,-0.02 9.75,-0.02 12.82,-0.17 3.07,-0.14 4.09,-0.55 2.14,16.29 -1.95,16.85 -5.87,50.92 -7.56,68.09 -1.69,17.17 -1.17,17.45 3.67,17.58 4.85,0.14 11.5,0.14 16.09,0.23 4.59,0.09 6.13,0.69 8.14,-16.33 2.01,-17.02 6.03,-51.24 8.05,-68.35 2.02,-17.12 2.02,-17.12 6.13,-17.15 4.11,-0.04 16.56,-0.12 20.66,-0.03z"/>
  </g>
 </g>
</svg>
